# xmcd
#
# Track frame offsets:
# 150
# 23541
# 44353
# 63393
# 72565
# 88391
# 107520
# 114479
# 136524
# 159316
# 184836
# 202374
# 229432
# 247353
#
# Disc length: 3618 seconds
#
# Revision: 0
# Processed by: cddbd v1.5.2PL0 Copyright (c) Steve Scherf et al.
# Submitted via: Audion 3.0.2 (http://www.panic.com/audion/)
#
DISCID=cd0e200e
DTITLE=Soul Coughing - Live in Rennes, France 3/12/94
DYEAR=1900
DGENRE=
TTITLE0=Moon Sammy
TTITLE1=Bus to Beelzebub
TTITLE2=Sugar-Free Jazz
TTITLE3=White Girl
TTITLE4=Casiotone Nation
TTITLE5=Blue-Eyed Devil
TTITLE6=Tell The Mermaid
TTITLE7=Screen Righters Blues
TTITLE8=Mr. Bitterness
TTITLE9=Down to This
TTITLE10=Uh, Zoom Zip
TTITLE11=True Dreams of Wichita
TTITLE12=Wooly Imbibe
TTITLE13=Blow My Only
EXTD=
EXTT0=
EXTT1=
EXTT2=
EXTT3=
EXTT4=
EXTT5=
EXTT6=
EXTT7=
EXTT8=
EXTT9=
EXTT10=
EXTT11=
EXTT12=
EXTT13=
PLAYORDER=
